%TF.GenerationSoftware,KiCad,Pcbnew,8.0.6*%
%TF.CreationDate,2024-12-01T17:46:25+03:00*%
%TF.ProjectId,6502_v1,36353032-5f76-4312-9e6b-696361645f70,rev?*%
%TF.SameCoordinates,Original*%
%TF.FileFunction,Drillmap*%
%TF.FilePolarity,Positive*%
%FSLAX45Y45*%
G04 Gerber Fmt 4.5, Leading zero omitted, Abs format (unit mm)*
G04 Created by KiCad (PCBNEW 8.0.6) date 2024-12-01 17:46:25*
%MOMM*%
%LPD*%
G01*
G04 APERTURE LIST*
%ADD10C,0.200000*%
G04 APERTURE END LIST*
D10*
X7405020Y-3737800D02*
G75*
G02*
X7085020Y-3737800I-160000J0D01*
G01*
X7085020Y-3737800D02*
G75*
G02*
X7405020Y-3737800I160000J0D01*
G01*
X22825020Y-3737800D02*
G75*
G02*
X22505020Y-3737800I-160000J0D01*
G01*
X22505020Y-3737800D02*
G75*
G02*
X22825020Y-3737800I160000J0D01*
G01*
X7405020Y-15147800D02*
G75*
G02*
X7085020Y-15147800I-160000J0D01*
G01*
X7085020Y-15147800D02*
G75*
G02*
X7405020Y-15147800I160000J0D01*
G01*
X22725020Y-15047800D02*
G75*
G02*
X22405020Y-15047800I-160000J0D01*
G01*
X22405020Y-15047800D02*
G75*
G02*
X22725020Y-15047800I160000J0D01*
G01*
X6940000Y-3430000D02*
X22980000Y-3430000D01*
X22980000Y-15460000D01*
X6940000Y-15460000D01*
X6940000Y-3430000D01*
X7190777Y-15781484D02*
X7190777Y-15581484D01*
X7190777Y-15581484D02*
X7238396Y-15581484D01*
X7238396Y-15581484D02*
X7266967Y-15591008D01*
X7266967Y-15591008D02*
X7286015Y-15610055D01*
X7286015Y-15610055D02*
X7295539Y-15629103D01*
X7295539Y-15629103D02*
X7305062Y-15667198D01*
X7305062Y-15667198D02*
X7305062Y-15695769D01*
X7305062Y-15695769D02*
X7295539Y-15733865D01*
X7295539Y-15733865D02*
X7286015Y-15752912D01*
X7286015Y-15752912D02*
X7266967Y-15771960D01*
X7266967Y-15771960D02*
X7238396Y-15781484D01*
X7238396Y-15781484D02*
X7190777Y-15781484D01*
X7390777Y-15781484D02*
X7390777Y-15648150D01*
X7390777Y-15686246D02*
X7400301Y-15667198D01*
X7400301Y-15667198D02*
X7409824Y-15657674D01*
X7409824Y-15657674D02*
X7428872Y-15648150D01*
X7428872Y-15648150D02*
X7447920Y-15648150D01*
X7514586Y-15781484D02*
X7514586Y-15648150D01*
X7514586Y-15581484D02*
X7505062Y-15591008D01*
X7505062Y-15591008D02*
X7514586Y-15600531D01*
X7514586Y-15600531D02*
X7524110Y-15591008D01*
X7524110Y-15591008D02*
X7514586Y-15581484D01*
X7514586Y-15581484D02*
X7514586Y-15600531D01*
X7638396Y-15781484D02*
X7619348Y-15771960D01*
X7619348Y-15771960D02*
X7609824Y-15752912D01*
X7609824Y-15752912D02*
X7609824Y-15581484D01*
X7743158Y-15781484D02*
X7724110Y-15771960D01*
X7724110Y-15771960D02*
X7714586Y-15752912D01*
X7714586Y-15752912D02*
X7714586Y-15581484D01*
X7971729Y-15781484D02*
X7971729Y-15581484D01*
X7971729Y-15581484D02*
X8038396Y-15724341D01*
X8038396Y-15724341D02*
X8105062Y-15581484D01*
X8105062Y-15581484D02*
X8105062Y-15781484D01*
X8286015Y-15781484D02*
X8286015Y-15676722D01*
X8286015Y-15676722D02*
X8276491Y-15657674D01*
X8276491Y-15657674D02*
X8257443Y-15648150D01*
X8257443Y-15648150D02*
X8219348Y-15648150D01*
X8219348Y-15648150D02*
X8200301Y-15657674D01*
X8286015Y-15771960D02*
X8266967Y-15781484D01*
X8266967Y-15781484D02*
X8219348Y-15781484D01*
X8219348Y-15781484D02*
X8200301Y-15771960D01*
X8200301Y-15771960D02*
X8190777Y-15752912D01*
X8190777Y-15752912D02*
X8190777Y-15733865D01*
X8190777Y-15733865D02*
X8200301Y-15714817D01*
X8200301Y-15714817D02*
X8219348Y-15705293D01*
X8219348Y-15705293D02*
X8266967Y-15705293D01*
X8266967Y-15705293D02*
X8286015Y-15695769D01*
X8381253Y-15648150D02*
X8381253Y-15848150D01*
X8381253Y-15657674D02*
X8400301Y-15648150D01*
X8400301Y-15648150D02*
X8438396Y-15648150D01*
X8438396Y-15648150D02*
X8457444Y-15657674D01*
X8457444Y-15657674D02*
X8466967Y-15667198D01*
X8466967Y-15667198D02*
X8476491Y-15686246D01*
X8476491Y-15686246D02*
X8476491Y-15743388D01*
X8476491Y-15743388D02*
X8466967Y-15762436D01*
X8466967Y-15762436D02*
X8457444Y-15771960D01*
X8457444Y-15771960D02*
X8438396Y-15781484D01*
X8438396Y-15781484D02*
X8400301Y-15781484D01*
X8400301Y-15781484D02*
X8381253Y-15771960D01*
X8562205Y-15762436D02*
X8571729Y-15771960D01*
X8571729Y-15771960D02*
X8562205Y-15781484D01*
X8562205Y-15781484D02*
X8552682Y-15771960D01*
X8552682Y-15771960D02*
X8562205Y-15762436D01*
X8562205Y-15762436D02*
X8562205Y-15781484D01*
X8562205Y-15657674D02*
X8571729Y-15667198D01*
X8571729Y-15667198D02*
X8562205Y-15676722D01*
X8562205Y-15676722D02*
X8552682Y-15667198D01*
X8552682Y-15667198D02*
X8562205Y-15657674D01*
X8562205Y-15657674D02*
X8562205Y-15676722D01*
M02*
