%TF.GenerationSoftware,KiCad,Pcbnew,8.0.6*%
%TF.CreationDate,2024-11-30T13:05:03+03:00*%
%TF.ProjectId,6502_v1,36353032-5f76-4312-9e6b-696361645f70,rev?*%
%TF.SameCoordinates,Original*%
%TF.FileFunction,Soldermask,Bot*%
%TF.FilePolarity,Negative*%
%FSLAX46Y46*%
G04 Gerber Fmt 4.6, Leading zero omitted, Abs format (unit mm)*
G04 Created by KiCad (PCBNEW 8.0.6) date 2024-11-30 13:05:03*
%MOMM*%
%LPD*%
G01*
G04 APERTURE LIST*
G04 Aperture macros list*
%AMFreePoly0*
4,1,19,0.550000,-0.750000,0.000000,-0.750000,0.000000,-0.744911,-0.071157,-0.744911,-0.207708,-0.704816,-0.327430,-0.627875,-0.420627,-0.520320,-0.479746,-0.390866,-0.500000,-0.250000,-0.500000,0.250000,-0.479746,0.390866,-0.420627,0.520320,-0.327430,0.627875,-0.207708,0.704816,-0.071157,0.744911,0.000000,0.744911,0.000000,0.750000,0.550000,0.750000,0.550000,-0.750000,0.550000,-0.750000,
$1*%
%AMFreePoly1*
4,1,19,0.000000,0.744911,0.071157,0.744911,0.207708,0.704816,0.327430,0.627875,0.420627,0.520320,0.479746,0.390866,0.500000,0.250000,0.500000,-0.250000,0.479746,-0.390866,0.420627,-0.520320,0.327430,-0.627875,0.207708,-0.704816,0.071157,-0.744911,0.000000,-0.744911,0.000000,-0.750000,-0.550000,-0.750000,-0.550000,0.750000,0.000000,0.750000,0.000000,0.744911,0.000000,0.744911,
$1*%
G04 Aperture macros list end*
%ADD10R,1.600000X1.600000*%
%ADD11C,1.600000*%
%ADD12C,1.524000*%
%ADD13C,3.300000*%
%ADD14R,1.422400X1.422400*%
%ADD15C,1.422400*%
%ADD16R,1.700000X1.700000*%
%ADD17O,1.700000X1.700000*%
%ADD18C,4.000000*%
%ADD19O,1.600000X1.600000*%
%ADD20R,2.200000X2.200000*%
%ADD21O,2.200000X2.200000*%
%ADD22R,1.800000X1.800000*%
%ADD23C,1.800000*%
%ADD24C,1.500000*%
%ADD25R,4.600000X2.000000*%
%ADD26O,4.200000X2.000000*%
%ADD27O,2.000000X4.200000*%
%ADD28C,2.000000*%
%ADD29R,2.000000X2.000000*%
%ADD30R,2.500000X2.500000*%
%ADD31C,2.500000*%
%ADD32FreePoly0,90.000000*%
%ADD33R,1.500000X1.000000*%
%ADD34FreePoly1,90.000000*%
%ADD35FreePoly0,180.000000*%
%ADD36R,1.000000X1.500000*%
%ADD37FreePoly1,180.000000*%
%ADD38FreePoly0,270.000000*%
%ADD39FreePoly1,270.000000*%
G04 APERTURE END LIST*
D10*
%TO.C,C33*%
X209650198Y-65878000D03*
D11*
X211650198Y-65878000D03*
%TD*%
D12*
%TO.C,J10*%
X118450000Y-42800000D03*
X121050000Y-42800000D03*
X116350000Y-42800000D03*
X123150000Y-42800000D03*
X116350000Y-45300000D03*
X123150000Y-45300000D03*
D13*
X113000000Y-39800000D03*
X119750000Y-39000000D03*
X126500000Y-39800000D03*
%TD*%
D14*
%TO.C,CPLD*%
X207450198Y-108846000D03*
D15*
X204910198Y-108846000D03*
X207450198Y-106306000D03*
X204910198Y-106306000D03*
X207450198Y-103766000D03*
X204910198Y-103766000D03*
X207450198Y-101226000D03*
X204910198Y-101226000D03*
X207450198Y-98686000D03*
X204910198Y-98686000D03*
X207450198Y-96146000D03*
X204910198Y-93606000D03*
X204910198Y-96146000D03*
X202370198Y-93606000D03*
X202370198Y-96146000D03*
X199830198Y-93606000D03*
X199830198Y-96146000D03*
X197290198Y-93606000D03*
X197290198Y-96146000D03*
X194750198Y-93606000D03*
X194750198Y-96146000D03*
X192210198Y-93606000D03*
X192210198Y-96146000D03*
X189670198Y-93606000D03*
X189670198Y-96146000D03*
X187130198Y-93606000D03*
X187130198Y-96146000D03*
X184590198Y-93606000D03*
X184590198Y-96146000D03*
X182050198Y-93606000D03*
X182050198Y-96146000D03*
X179510198Y-93606000D03*
X176970198Y-96146000D03*
X179510198Y-96146000D03*
X176970198Y-98686000D03*
X179510198Y-98686000D03*
X176970198Y-101226000D03*
X179510198Y-101226000D03*
X176970198Y-103766000D03*
X179510198Y-103766000D03*
X176970198Y-106306000D03*
X179510198Y-106306000D03*
X176970198Y-108846000D03*
X179510198Y-108846000D03*
X176970198Y-111386000D03*
X179510198Y-111386000D03*
X176970198Y-113926000D03*
X179510198Y-113926000D03*
X176970198Y-116466000D03*
X179510198Y-116466000D03*
X176970198Y-119006000D03*
X179510198Y-119006000D03*
X176970198Y-121546000D03*
X179510198Y-124086000D03*
X179510198Y-121546000D03*
X182050198Y-124086000D03*
X182050198Y-121546000D03*
X184590198Y-124086000D03*
X184590198Y-121546000D03*
X187130198Y-124086000D03*
X187130198Y-121546000D03*
X189670198Y-124086000D03*
X189670198Y-121546000D03*
X192210198Y-124086000D03*
X192210198Y-121546000D03*
X194750198Y-124086000D03*
X194750198Y-121546000D03*
X197290198Y-124086000D03*
X197290198Y-121546000D03*
X199830198Y-124086000D03*
X199830198Y-121546000D03*
X202370198Y-124086000D03*
X202370198Y-121546000D03*
X204910198Y-124086000D03*
X207450198Y-121546000D03*
X204910198Y-121546000D03*
X207450198Y-119006000D03*
X204910198Y-119006000D03*
X207450198Y-116466000D03*
X204910198Y-116466000D03*
X207450198Y-113926000D03*
X204910198Y-113926000D03*
X207450198Y-111386000D03*
X204910198Y-111386000D03*
%TD*%
D16*
%TO.C,J5*%
X138362198Y-88729200D03*
D17*
X135822198Y-88729200D03*
X133282198Y-88729200D03*
X130742198Y-88729200D03*
X128202198Y-88729200D03*
X125662198Y-88729200D03*
X123122198Y-88729200D03*
X120582198Y-88729200D03*
X118042198Y-88729200D03*
X115502198Y-88729200D03*
X112962198Y-88729200D03*
X110422198Y-88729200D03*
%TD*%
D16*
%TO.C,J15*%
X211950198Y-85678000D03*
%TD*%
D18*
%TO.C,J1*%
X160579998Y-46078000D03*
X135579998Y-46078000D03*
D10*
X143764998Y-48128000D03*
D11*
X146054998Y-48128000D03*
X148344998Y-48128000D03*
X150634998Y-48128000D03*
X152924998Y-48128000D03*
X142619998Y-46148000D03*
X144909998Y-46148000D03*
X147199998Y-46148000D03*
X149489998Y-46148000D03*
X151779998Y-46148000D03*
X143764998Y-44168000D03*
X146054998Y-44168000D03*
X148344998Y-44168000D03*
X150634998Y-44168000D03*
X152924998Y-44168000D03*
%TD*%
%TO.C,R4*%
X134950198Y-62538000D03*
D19*
X134950198Y-52378000D03*
%TD*%
D11*
%TO.C,C14*%
X84200198Y-101178000D03*
X86700198Y-101178000D03*
%TD*%
D16*
%TO.C,J19*%
X189650198Y-152478000D03*
%TD*%
D20*
%TO.C,D2*%
X97800198Y-111208000D03*
D21*
X97800198Y-101048000D03*
%TD*%
D22*
%TO.C,D7*%
X170594798Y-40078000D03*
D23*
X172753798Y-40078000D03*
X174912798Y-40078000D03*
X177071798Y-40078000D03*
%TD*%
D16*
%TO.C,J23*%
X108650198Y-128678000D03*
%TD*%
D11*
%TO.C,C13*%
X146000000Y-65450000D03*
X146000000Y-67950000D03*
%TD*%
D10*
%TO.C,C34*%
X219005311Y-87878000D03*
D11*
X217005311Y-87878000D03*
%TD*%
%TO.C,C24*%
X219600198Y-150378000D03*
X217100198Y-150378000D03*
%TD*%
%TO.C,C29*%
X169500198Y-90478000D03*
X167000198Y-90478000D03*
%TD*%
%TO.C,C25*%
X218400198Y-79078000D03*
X220900198Y-79078000D03*
%TD*%
D16*
%TO.C,J28*%
X143650198Y-128678000D03*
%TD*%
D11*
%TO.C,C9*%
X81500198Y-61478000D03*
X79000198Y-61478000D03*
%TD*%
D16*
%TO.C,J9*%
X217025198Y-98803000D03*
D17*
X219565198Y-98803000D03*
X217025198Y-96263000D03*
X219565198Y-96263000D03*
X217025198Y-93723000D03*
X219565198Y-93723000D03*
%TD*%
D11*
%TO.C,R26*%
X169248598Y-55658400D03*
D19*
X169248598Y-45498400D03*
%TD*%
D11*
%TO.C,C7*%
X185700198Y-88678000D03*
X183200198Y-88678000D03*
%TD*%
D16*
%TO.C,J3*%
X140847991Y-110896022D03*
D17*
X138307991Y-110896022D03*
X135767991Y-110896022D03*
X133227991Y-110896022D03*
X130687991Y-110896022D03*
X128147991Y-110896022D03*
X125607991Y-110896022D03*
X123067991Y-110896022D03*
%TD*%
D16*
%TO.C,J8*%
X216825198Y-146678000D03*
D17*
X219365198Y-146678000D03*
X216825198Y-144138000D03*
X219365198Y-144138000D03*
X216825198Y-141598000D03*
X219365198Y-141598000D03*
X216825198Y-139058000D03*
X219365198Y-139058000D03*
X216825198Y-136518000D03*
X219365198Y-136518000D03*
X216825198Y-133978000D03*
X219365198Y-133978000D03*
X216825198Y-131438000D03*
X219365198Y-131438000D03*
X216825198Y-128898000D03*
X219365198Y-128898000D03*
X216825198Y-126358000D03*
X219365198Y-126358000D03*
X216825198Y-123818000D03*
X219365198Y-123818000D03*
X216825198Y-121278000D03*
X219365198Y-121278000D03*
X216825198Y-118738000D03*
X219365198Y-118738000D03*
%TD*%
D11*
%TO.C,C26*%
X194798000Y-129540000D03*
X192298000Y-129540000D03*
%TD*%
%TO.C,C31*%
X96250198Y-54078000D03*
X98750198Y-54078000D03*
%TD*%
%TO.C,R3*%
X166175198Y-55633000D03*
D19*
X166175198Y-45473000D03*
%TD*%
D20*
%TO.C,D6*%
X206570198Y-51878000D03*
D21*
X216730198Y-51878000D03*
%TD*%
D11*
%TO.C,C12*%
X167650198Y-111978000D03*
X167650198Y-114478000D03*
%TD*%
D20*
%TO.C,D5*%
X194130198Y-55778000D03*
D21*
X183970198Y-55778000D03*
%TD*%
D24*
%TO.C,Y2*%
X97950198Y-57578000D03*
X101750198Y-57578000D03*
%TD*%
D16*
%TO.C,JTAG*%
X187800198Y-137088000D03*
D17*
X190340198Y-137088000D03*
X187800198Y-139628000D03*
X190340198Y-139628000D03*
X187800198Y-142168000D03*
X190340198Y-142168000D03*
X187800198Y-144708000D03*
X190340198Y-144708000D03*
X187800198Y-147248000D03*
X190340198Y-147248000D03*
%TD*%
D25*
%TO.C,J2*%
X214518000Y-48464000D03*
D26*
X214518000Y-42164000D03*
D27*
X209718000Y-45564000D03*
%TD*%
D28*
%TO.C,RESET*%
X158696998Y-111539600D03*
X158696998Y-118039600D03*
X154196998Y-111539600D03*
X154196998Y-118039600D03*
%TD*%
D16*
%TO.C,J18*%
X131250198Y-152478000D03*
%TD*%
D11*
%TO.C,C30*%
X103450198Y-54078000D03*
X100950198Y-54078000D03*
%TD*%
D16*
%TO.C,J7*%
X203386198Y-47364200D03*
D17*
X203386198Y-44824200D03*
X200846198Y-47364200D03*
X200846198Y-44824200D03*
X198306198Y-47364200D03*
X198306198Y-44824200D03*
X195766198Y-47364200D03*
X195766198Y-44824200D03*
X193226198Y-47364200D03*
X193226198Y-44824200D03*
X190686198Y-47364200D03*
X190686198Y-44824200D03*
X188146198Y-47364200D03*
X188146198Y-44824200D03*
X185606198Y-47364200D03*
X185606198Y-44824200D03*
X183066198Y-47364200D03*
X183066198Y-44824200D03*
%TD*%
D11*
%TO.C,C11*%
X172050198Y-98328000D03*
X172050198Y-95828000D03*
%TD*%
D16*
%TO.C,J22*%
X173650198Y-85678000D03*
%TD*%
D10*
%TO.C,U4*%
X125475198Y-49278000D03*
D19*
X122935198Y-49278000D03*
X120395198Y-49278000D03*
X117855198Y-49278000D03*
X115315198Y-49278000D03*
X112775198Y-49278000D03*
X110235198Y-49278000D03*
X110235198Y-56898000D03*
X112775198Y-56898000D03*
X115315198Y-56898000D03*
X117855198Y-56898000D03*
X120395198Y-56898000D03*
X122935198Y-56898000D03*
X125475198Y-56898000D03*
%TD*%
D29*
%TO.C,BZ1*%
X149750198Y-60978000D03*
D28*
X149750198Y-53378000D03*
%TD*%
D20*
%TO.C,D9*%
X218050198Y-112558000D03*
D21*
X218050198Y-102398000D03*
%TD*%
D11*
%TO.C,C2*%
X217800198Y-115478000D03*
X220300198Y-115478000D03*
%TD*%
%TO.C,C6*%
X160800198Y-57378000D03*
X163300198Y-57378000D03*
%TD*%
D24*
%TO.C,Y3*%
X82600198Y-143478000D03*
X87500198Y-143478000D03*
%TD*%
D20*
%TO.C,D8*%
X197970198Y-83178000D03*
D21*
X208130198Y-83178000D03*
%TD*%
D10*
%TO.C,ROM*%
X105073198Y-148475000D03*
D19*
X107613198Y-148475000D03*
X110153198Y-148475000D03*
X112693198Y-148475000D03*
X115233198Y-148475000D03*
X117773198Y-148475000D03*
X120313198Y-148475000D03*
X122853198Y-148475000D03*
X125393198Y-148475000D03*
X127933198Y-148475000D03*
X130473198Y-148475000D03*
X133013198Y-148475000D03*
X135553198Y-148475000D03*
X138093198Y-148475000D03*
X138093198Y-133235000D03*
X135553198Y-133235000D03*
X133013198Y-133235000D03*
X130473198Y-133235000D03*
X127933198Y-133235000D03*
X125393198Y-133235000D03*
X122853198Y-133235000D03*
X120313198Y-133235000D03*
X117773198Y-133235000D03*
X115233198Y-133235000D03*
X112693198Y-133235000D03*
X110153198Y-133235000D03*
X107613198Y-133235000D03*
X105073198Y-133235000D03*
%TD*%
D11*
%TO.C,C2*%
X111150198Y-71378000D03*
X111150198Y-73878000D03*
%TD*%
%TO.C,C18*%
X215050198Y-115328000D03*
X215050198Y-112828000D03*
%TD*%
%TO.C,C20*%
X198628000Y-146070000D03*
X198628000Y-148570000D03*
%TD*%
D20*
%TO.C,D3*%
X96450198Y-83678000D03*
D21*
X96450198Y-93838000D03*
%TD*%
D11*
%TO.C,C1*%
X147252198Y-130365200D03*
X147252198Y-127865200D03*
%TD*%
D16*
%TO.C,J24*%
X151450198Y-152478000D03*
%TD*%
D10*
%TO.C,ACIA1*%
X77397198Y-105918000D03*
D19*
X77397198Y-108458000D03*
X77397198Y-110998000D03*
X77397198Y-113538000D03*
X77397198Y-116078000D03*
X77397198Y-118618000D03*
X77397198Y-121158000D03*
X77397198Y-123698000D03*
X77397198Y-126238000D03*
X77397198Y-128778000D03*
X77397198Y-131318000D03*
X77397198Y-133858000D03*
X77397198Y-136398000D03*
X77397198Y-138938000D03*
X92637198Y-138938000D03*
X92637198Y-136398000D03*
X92637198Y-133858000D03*
X92637198Y-131318000D03*
X92637198Y-128778000D03*
X92637198Y-126238000D03*
X92637198Y-123698000D03*
X92637198Y-121158000D03*
X92637198Y-118618000D03*
X92637198Y-116078000D03*
X92637198Y-113538000D03*
X92637198Y-110998000D03*
X92637198Y-108458000D03*
X92637198Y-105918000D03*
%TD*%
D11*
%TO.C,C22*%
X103350000Y-48700000D03*
X105850000Y-48700000D03*
%TD*%
D10*
%TO.C,U1*%
X130170198Y-60978000D03*
D19*
X127630198Y-60978000D03*
X125090198Y-60978000D03*
X122550198Y-60978000D03*
X120010198Y-60978000D03*
X117470198Y-60978000D03*
X114930198Y-60978000D03*
X112390198Y-60978000D03*
X109850198Y-60978000D03*
X107310198Y-60978000D03*
X104770198Y-60978000D03*
X102230198Y-60978000D03*
X99690198Y-60978000D03*
X97150198Y-60978000D03*
X97150198Y-68598000D03*
X99690198Y-68598000D03*
X102230198Y-68598000D03*
X104770198Y-68598000D03*
X107310198Y-68598000D03*
X109850198Y-68598000D03*
X112390198Y-68598000D03*
X114930198Y-68598000D03*
X117470198Y-68598000D03*
X120010198Y-68598000D03*
X122550198Y-68598000D03*
X125090198Y-68598000D03*
X127630198Y-68598000D03*
X130170198Y-68598000D03*
%TD*%
D11*
%TO.C,C28*%
X212050198Y-91228000D03*
X212050198Y-93728000D03*
%TD*%
D10*
%TO.C,RAM*%
X147237198Y-148475000D03*
D19*
X149777198Y-148475000D03*
X152317198Y-148475000D03*
X154857198Y-148475000D03*
X157397198Y-148475000D03*
X159937198Y-148475000D03*
X162477198Y-148475000D03*
X165017198Y-148475000D03*
X167557198Y-148475000D03*
X170097198Y-148475000D03*
X172637198Y-148475000D03*
X175177198Y-148475000D03*
X177717198Y-148475000D03*
X180257198Y-148475000D03*
X180257198Y-133235000D03*
X177717198Y-133235000D03*
X175177198Y-133235000D03*
X172637198Y-133235000D03*
X170097198Y-133235000D03*
X167557198Y-133235000D03*
X165017198Y-133235000D03*
X162477198Y-133235000D03*
X159937198Y-133235000D03*
X157397198Y-133235000D03*
X154857198Y-133235000D03*
X152317198Y-133235000D03*
X149777198Y-133235000D03*
X147237198Y-133235000D03*
%TD*%
D22*
%TO.C,Power*%
X224625198Y-65578000D03*
D23*
X222085198Y-65578000D03*
%TD*%
D11*
%TO.C,C17*%
X92650198Y-142428000D03*
X92650198Y-144928000D03*
%TD*%
D30*
%TO.C,CRYSTAL*%
X206270198Y-141898000D03*
D31*
X206270198Y-134278000D03*
X198650198Y-134278000D03*
X198650198Y-141898000D03*
%TD*%
D11*
%TO.C,C15*%
X95650198Y-139028000D03*
X95650198Y-141528000D03*
%TD*%
D16*
%TO.C,J4*%
X225139231Y-44938070D03*
D17*
X225139231Y-47478070D03*
X225139231Y-50018070D03*
%TD*%
D11*
%TO.C,C27*%
X214850198Y-106328000D03*
X214850198Y-103828000D03*
%TD*%
%TO.C,C10*%
X167650198Y-119528000D03*
X167650198Y-117028000D03*
%TD*%
%TO.C,C19*%
X77450198Y-142228000D03*
X77450198Y-144728000D03*
%TD*%
%TO.C,R23*%
X175352998Y-55658400D03*
D19*
X175352998Y-45498400D03*
%TD*%
D11*
%TO.C,C8*%
X105037398Y-130517600D03*
X105037398Y-128017600D03*
%TD*%
%TO.C,R22*%
X178392598Y-55658400D03*
D19*
X178392598Y-45498400D03*
%TD*%
D10*
%TO.C,CPU*%
X158593198Y-92155000D03*
D19*
X156053198Y-92155000D03*
X153513198Y-92155000D03*
X150973198Y-92155000D03*
X148433198Y-92155000D03*
X145893198Y-92155000D03*
X143353198Y-92155000D03*
X140813198Y-92155000D03*
X138273198Y-92155000D03*
X135733198Y-92155000D03*
X133193198Y-92155000D03*
X130653198Y-92155000D03*
X128113198Y-92155000D03*
X125573198Y-92155000D03*
X123033198Y-92155000D03*
X120493198Y-92155000D03*
X117953198Y-92155000D03*
X115413198Y-92155000D03*
X112873198Y-92155000D03*
X110333198Y-92155000D03*
X110333198Y-107395000D03*
X112873198Y-107395000D03*
X115413198Y-107395000D03*
X117953198Y-107395000D03*
X120493198Y-107395000D03*
X123033198Y-107395000D03*
X125573198Y-107395000D03*
X128113198Y-107395000D03*
X130653198Y-107395000D03*
X133193198Y-107395000D03*
X135733198Y-107395000D03*
X138273198Y-107395000D03*
X140813198Y-107395000D03*
X143353198Y-107395000D03*
X145893198Y-107395000D03*
X148433198Y-107395000D03*
X150973198Y-107395000D03*
X153513198Y-107395000D03*
X156053198Y-107395000D03*
X158593198Y-107395000D03*
%TD*%
D11*
%TO.C,C3*%
X92611398Y-101276800D03*
X95111398Y-101276800D03*
%TD*%
D16*
%TO.C,J20*%
X143650198Y-150278000D03*
%TD*%
D11*
%TO.C,R1*%
X216650198Y-71358000D03*
D19*
X216650198Y-61198000D03*
%TD*%
D11*
%TO.C,C4*%
X147300198Y-110628000D03*
X144800198Y-110628000D03*
%TD*%
D16*
%TO.C,J17*%
X143650198Y-132478000D03*
%TD*%
%TO.C,J12*%
X212050198Y-79478000D03*
D17*
X209510198Y-79478000D03*
X206970198Y-79478000D03*
X204430198Y-79478000D03*
%TD*%
D11*
%TO.C,C16*%
X128450198Y-53928000D03*
X128450198Y-51428000D03*
%TD*%
%TO.C,R13*%
X162365198Y-101988000D03*
D19*
X162365198Y-91828000D03*
%TD*%
D11*
%TO.C,R5*%
X140950198Y-62558000D03*
D19*
X140950198Y-52398000D03*
%TD*%
D16*
%TO.C,J26*%
X104975198Y-44878000D03*
D17*
X102435198Y-44878000D03*
X99895198Y-44878000D03*
X97355198Y-44878000D03*
X94815198Y-44878000D03*
X92275198Y-44878000D03*
%TD*%
D11*
%TO.C,R6*%
X137950198Y-62558000D03*
D19*
X137950198Y-52398000D03*
%TD*%
D16*
%TO.C,J21*%
X97850198Y-152478000D03*
%TD*%
D11*
%TO.C,R2*%
X150350198Y-122178000D03*
D19*
X150350198Y-112018000D03*
%TD*%
D16*
%TO.C,J13*%
X111866002Y-110889515D03*
D17*
X114406002Y-110889515D03*
X116946002Y-110889515D03*
X119486002Y-110889515D03*
%TD*%
D10*
%TO.C,C32*%
X86005311Y-149678000D03*
D11*
X84005311Y-149678000D03*
%TD*%
D10*
%TO.C,U7*%
X77397198Y-65158000D03*
D19*
X77397198Y-67698000D03*
X77397198Y-70238000D03*
X77397198Y-72778000D03*
X77397198Y-75318000D03*
X77397198Y-77858000D03*
X77397198Y-80398000D03*
X77397198Y-82938000D03*
X77397198Y-85478000D03*
X77397198Y-88018000D03*
X77397198Y-90558000D03*
X77397198Y-93098000D03*
X77397198Y-95638000D03*
X77397198Y-98178000D03*
X92637198Y-98178000D03*
X92637198Y-95638000D03*
X92637198Y-93098000D03*
X92637198Y-90558000D03*
X92637198Y-88018000D03*
X92637198Y-85478000D03*
X92637198Y-82938000D03*
X92637198Y-80398000D03*
X92637198Y-77858000D03*
X92637198Y-75318000D03*
X92637198Y-72778000D03*
X92637198Y-70238000D03*
X92637198Y-67698000D03*
X92637198Y-65158000D03*
%TD*%
D10*
%TO.C,U5*%
X205926198Y-60332000D03*
D19*
X203386198Y-60332000D03*
X200846198Y-60332000D03*
X198306198Y-60332000D03*
X195766198Y-60332000D03*
X193226198Y-60332000D03*
X190686198Y-60332000D03*
X188146198Y-60332000D03*
X185606198Y-60332000D03*
X183066198Y-60332000D03*
X180526198Y-60332000D03*
X177986198Y-60332000D03*
X175446198Y-60332000D03*
X172906198Y-60332000D03*
X170366198Y-60332000D03*
X167826198Y-60332000D03*
X165286198Y-60332000D03*
X162746198Y-60332000D03*
X160206198Y-60332000D03*
X157666198Y-60332000D03*
X157666198Y-75572000D03*
X160206198Y-75572000D03*
X162746198Y-75572000D03*
X165286198Y-75572000D03*
X167826198Y-75572000D03*
X170366198Y-75572000D03*
X172906198Y-75572000D03*
X175446198Y-75572000D03*
X177986198Y-75572000D03*
X180526198Y-75572000D03*
X183066198Y-75572000D03*
X185606198Y-75572000D03*
X188146198Y-75572000D03*
X190686198Y-75572000D03*
X193226198Y-75572000D03*
X195766198Y-75572000D03*
X198306198Y-75572000D03*
X200846198Y-75572000D03*
X203386198Y-75572000D03*
X205926198Y-75572000D03*
%TD*%
D11*
%TO.C,C23*%
X225000198Y-86278000D03*
X227500198Y-86278000D03*
%TD*%
%TO.C,C5*%
X179850198Y-39578000D03*
X179850198Y-37078000D03*
%TD*%
%TO.C,R24*%
X172296598Y-55658400D03*
D19*
X172296598Y-45498400D03*
%TD*%
D28*
%TO.C,SW2*%
X165700198Y-87228000D03*
X165700198Y-80728000D03*
X170200198Y-87228000D03*
X170200198Y-80728000D03*
%TD*%
D20*
%TO.C,D11*%
X194050198Y-139798000D03*
D21*
X194050198Y-149958000D03*
%TD*%
D20*
%TO.C,D4*%
X154050198Y-75920000D03*
D21*
X154050198Y-86080000D03*
%TD*%
D11*
%TO.C,C21*%
X141050198Y-152028000D03*
X141050198Y-149528000D03*
%TD*%
D32*
%TO.C,J6*%
X89750198Y-69578000D03*
D33*
X89750198Y-68278000D03*
D34*
X89750198Y-66978000D03*
%TD*%
D35*
%TO.C,J14*%
X143032000Y-40132000D03*
D36*
X141732000Y-40132000D03*
D37*
X140432000Y-40132000D03*
%TD*%
D38*
%TO.C,J16*%
X95850198Y-106078000D03*
D33*
X95850198Y-107378000D03*
D39*
X95850198Y-108678000D03*
%TD*%
M02*
