M48
; DRILL file {KiCad 8.0.6} date 2024-11-30T13:05:56+0300
; FORMAT={-:-/ absolute / metric / decimal}
; #@! TF.CreationDate,2024-11-30T13:05:56+03:00
; #@! TF.GenerationSoftware,Kicad,Pcbnew,8.0.6
; #@! TF.FileFunction,Plated,1,2,PTH
FMAT,2
METRIC
; #@! TA.AperFunction,Plated,PTH,ViaDrill
T1C0.350
; #@! TA.AperFunction,Plated,PTH,ViaDrill
T2C0.400
; #@! TA.AperFunction,Plated,PTH,ComponentDrill
T3C0.762
; #@! TA.AperFunction,Plated,PTH,ComponentDrill
T4C0.800
; #@! TA.AperFunction,Plated,PTH,ComponentDrill
T5C0.900
; #@! TA.AperFunction,Plated,PTH,ComponentDrill
T6C1.000
; #@! TA.AperFunction,Plated,PTH,ComponentDrill
T7C1.100
; #@! TA.AperFunction,Plated,PTH,ComponentDrill
T8C2.300
; #@! TA.AperFunction,Plated,PTH,ComponentDrill
T9C3.200
%
G90
G05
T1
X70.5Y-144.6
X70.7Y-139.1
X70.8Y-135.1
X71.0Y-84.9
X71.0Y-90.9
X71.0Y-97.2
X71.0Y-120.0
X71.1Y-62.6
X71.1Y-78.4
X71.1Y-105.0
X71.1Y-110.9
X71.1Y-129.1
X71.2Y-73.1
X71.2Y-116.1
X71.2Y-125.1
X71.3Y-67.7
X71.5Y-57.9
X72.2Y-51.9
X72.5Y-47.1
X73.4Y-41.8
X73.4Y-134.4
X73.9Y-147.5
X74.1Y-143.0
X74.4Y-137.8
X75.1Y-153.1
X75.3Y-107.9
X75.4Y-95.3
X75.4Y-104.1
X75.4Y-113.2
X75.4Y-118.2
X75.5Y-99.4
X75.7Y-53.2
X76.9Y-62.3
X77.0Y-149.2
X77.3Y-102.0
X77.5Y-38.7
X78.4Y-48.6
X78.5Y-63.3
X78.9Y-45.2
X79.5Y-64.7
X79.7Y-40.4
X80.2Y-153.1
X81.1Y-63.4
X81.6Y-149.1
X82.0Y-129.1
X82.2Y-111.2
X82.2Y-122.0
X82.3Y-136.1
X82.4Y-46.0
X82.5Y-115.4
X82.6Y-37.4
X82.6Y-107.2
X82.7Y-56.9
X83.82Y-53.34
X85.0Y-153.4
X85.2Y-40.8
X86.2Y-105.2
X86.3Y-110.6
X86.6Y-108.6
X87.1Y-37.9
X87.1Y-44.0
X87.4Y-136.6
X87.4Y-140.9
X87.6Y-51.5
X87.6Y-129.3
X88.392Y-55.88
X89.0Y-144.9
X89.1Y-151.3
X90.1Y-131.9
X90.3Y-137.1
X90.6Y-141.1
X90.8Y-153.4
X91.6Y-57.5
X92.964Y-54.356
X93.0Y-149.0
X93.472Y-51.308
X93.9Y-140.9
X95.0Y-130.5
X95.0Y-132.8
X95.0Y-135.8
X95.2Y-143.6
X95.5Y-150.2
X95.8Y-98.2
X95.9Y-103.6
X96.3Y-145.5
X97.0Y-148.9
X97.4Y-118.4
X97.5Y-143.7
X98.0Y-51.4
X98.0Y-103.9
X99.3Y-71.7
X99.7Y-96.9
X100.5Y-107.8
X100.6Y-153.3
X100.9Y-93.4
X100.9Y-103.7
X100.9Y-111.5
X101.2Y-99.7
X101.5Y-90.6
X102.0Y-50.9
X103.4Y-76.1
X105.1Y-124.9
X106.1Y-56.1
X106.2Y-52.4
X106.3Y-72.4
X107.4Y-121.4
X107.6Y-50.2
X108.4Y-37.2
X109.3Y-76.2
X109.4Y-44.6
X109.8Y-124.9
X110.6Y-118.8
X112.0Y-98.7
X112.8Y-121.4
X112.9Y-130.7
X113.0Y-43.6
X113.5Y-76.1
X113.6Y-125.1
X114.8Y-95.7
X114.9Y-101.9
X115.5Y-118.6
X116.1Y-36.4
X116.2Y-53.2
X116.5Y-72.1
X116.8Y-121.6
X117.1Y-98.8
X117.7Y-126.8
X117.9Y-130.7
X118.3Y-76.4
X120.0Y-123.6
X120.4Y-53.4
X120.7Y-102.5
X121.0Y-95.6
X121.5Y-118.6
X121.8Y-72.5
X122.3Y-130.7
X122.7Y-76.4
X122.7Y-126.7
X123.2Y-37.3
X123.9Y-98.8
X124.1Y-122.9
X124.8Y-53.4
X126.3Y-102.6
X126.8Y-72.4
X127.4Y-95.6
X129.0Y-153.5
X129.1Y-41.8
X129.3Y-150.8
X130.1Y-45.0
X130.1Y-56.8
X130.2Y-98.7
X131.064Y-37.592
X131.4Y-49.0
X131.9Y-52.3
X132.9Y-95.5
X133.6Y-102.9
X134.7Y-150.6
X135.1Y-55.9
X135.1Y-124.0
X135.636Y-41.656
X136.144Y-38.1
X136.7Y-98.8
X136.7Y-127.6
X137.8Y-95.4
X138.5Y-70.6
X138.7Y-150.6
X139.2Y-49.0
X139.9Y-102.9
X140.1Y-124.1
X141.1Y-36.1
X141.4Y-127.6
X142.7Y-68.1
X142.7Y-70.7
X142.7Y-148.3
X144.0Y-148.3
X144.7Y-102.9
X144.78Y-40.132
X145.1Y-63.1
X145.3Y-148.4
X145.9Y-113.0
X146.1Y-124.1
X146.7Y-150.6
X147.5Y-70.8
X147.5Y-115.1
X147.828Y-40.64
X148.1Y-56.8
X148.6Y-113.6
X149.4Y-36.2
X149.7Y-68.2
X149.9Y-150.7
X150.5Y-63.4
X150.6Y-127.5
X151.5Y-130.6
X152.4Y-109.9
X152.5Y-150.6
X152.6Y-39.1
X153.1Y-68.2
X153.6Y-52.6
X153.6Y-60.0
X153.6Y-123.7
X154.4Y-152.3
X154.9Y-36.9
X155.2Y-63.3
X155.4Y-153.4
X155.8Y-68.0
X156.5Y-116.9
X157.1Y-53.9
X157.1Y-88.9
X157.7Y-127.2
X157.8Y-42.6
X158.1Y-49.2
X158.7Y-57.6
X158.8Y-120.8
X160.4Y-51.1
X160.8Y-86.8
X161.0Y-107.4
X161.2Y-110.4
X161.4Y-117.2
X161.6Y-128.3
X161.9Y-123.2
X162.3Y-85.4
X162.4Y-37.0
X162.6Y-88.8
X162.8Y-105.5
X163.6Y-42.4
X163.7Y-47.9
X163.7Y-108.6
X163.7Y-119.3
X164.4Y-90.6
X165.0Y-92.6
X165.5Y-126.8
X165.6Y-57.5
X167.5Y-53.2
X167.5Y-123.1
X167.8Y-86.2
X167.9Y-42.5
X168.6Y-36.6
X169.9Y-50.6
X170.9Y-42.8
X174.3Y-94.1
X174.4Y-96.4
X175.0Y-89.1
X175.2Y-52.7
X176.7Y-92.5
X176.9Y-87.2
X177.1Y-94.3
X177.3Y-42.5
X177.6Y-37.0
X179.1Y-89.2
X180.1Y-52.7
X180.9Y-89.8
X181.5Y-87.4
X182.3Y-109.3
X184.0Y-118.5
X184.1Y-113.1
X184.9Y-106.6
X187.2Y-99.0
X187.6Y-103.5
X187.6Y-110.9
X187.8Y-116.4
X188.1Y-107.0
X189.6Y-39.2
X193.04Y-132.588
X194.0Y-39.2
X194.1Y-137.4
X195.0Y-115.7
X195.1Y-99.4
X195.1Y-111.9
X195.2Y-103.5
X195.2Y-108.2
X196.6Y-151.0
X198.7Y-138.8
X199.2Y-38.7
X199.9Y-137.3
X200.7Y-131.8
X201.0Y-129.0
X201.5Y-141.2
X201.5Y-146.5
X201.6Y-150.9
X201.8Y-90.5
X201.9Y-134.8
X202.1Y-143.7
X203.1Y-131.5
X203.4Y-133.5
X203.4Y-140.2
X203.6Y-87.5
X204.1Y-148.9
X204.2Y-136.3
X204.4Y-90.9
X204.6Y-63.0
X205.2Y-40.8
X205.5Y-49.4
X206.3Y-86.1
X206.6Y-56.0
X207.0Y-88.3
X207.4Y-90.4
X207.6Y-150.9
X208.0Y-136.3
X208.1Y-146.3
X209.0Y-86.0
X209.1Y-143.5
X209.6Y-137.9
X209.9Y-93.8
X211.0Y-148.8
X211.3Y-88.8
X211.9Y-98.9
X212.1Y-140.2
X212.3Y-101.1
X212.5Y-95.7
X212.8Y-55.8
X212.9Y-146.2
X214.2Y-151.0
X214.3Y-68.2
X214.6Y-63.0
X215.2Y-94.8
X215.3Y-97.3
X215.8Y-85.2
X215.8Y-108.6
X215.8Y-110.1
X218.3Y-83.3
X218.4Y-67.9
X218.8Y-108.1
X219.9Y-104.4
X220.0Y-50.5
X220.0Y-58.5
X220.2Y-101.1
X220.4Y-54.9
X220.6Y-110.0
X220.7Y-85.7
X221.2Y-91.1
X221.9Y-140.8
X221.9Y-145.6
X222.1Y-87.6
X222.2Y-90.2
X222.2Y-129.5
X222.3Y-125.3
X222.3Y-134.6
X222.5Y-101.1
X222.6Y-103.9
X222.7Y-60.1
X222.7Y-72.3
X222.8Y-108.2
X223.0Y-109.8
X223.1Y-112.7
X223.1Y-115.3
X223.1Y-119.5
X224.3Y-76.8
X224.8Y-55.2
X227.2Y-65.3
X227.2Y-81.0
X227.3Y-58.5
X227.3Y-95.3
X227.5Y-88.7
X227.5Y-100.9
X227.5Y-104.0
X227.5Y-108.4
X227.5Y-112.4
X227.6Y-72.9
X227.6Y-92.4
X227.6Y-115.7
X228.0Y-128.4
X228.1Y-139.7
X228.2Y-149.6
T2
X78.806Y-117.209
X78.926Y-119.666
X79.4Y-73.6
X79.772Y-78.6
X79.931Y-122.223
X80.172Y-80.7
X80.45Y-121.368
X80.572Y-95.7
X80.972Y-98.2
X81.372Y-108.628
X81.372Y-113.478
X82.172Y-105.128
X82.75Y-68.678
X87.17Y-113.378
X87.55Y-66.278
X87.7Y-90.7
X88.1Y-88.2
X88.52Y-85.9
X88.9Y-83.3
X89.32Y-80.8
X89.72Y-78.315
X90.12Y-75.7
X90.52Y-73.44
X90.849Y-115.279
X91.35Y-69.078
X94.45Y-91.478
X96.511Y-117.038
X97.85Y-146.778
X99.55Y-146.778
X102.126Y-135.851
X102.142Y-136.851
X102.144Y-134.851
X102.195Y-133.853
X102.712Y-132.404
X107.4Y-64.128
X107.8Y-146.348
X108.25Y-66.828
X108.55Y-58.678
X110.2Y-145.948
X111.15Y-63.378
X111.25Y-59.578
X113.013Y-145.548
X115.6Y-145.148
X115.949Y-136.552
X115.987Y-112.838
X118.0Y-144.722
X118.083Y-136.085
X120.4Y-144.3
X122.9Y-143.922
X125.4Y-143.522
X126.417Y-84.679
X127.55Y-82.329
X128.0Y-143.122
X128.659Y-82.318
X128.659Y-84.229
X128.772Y-118.0
X128.772Y-119.0
X128.772Y-120.0
X128.772Y-121.0
X128.772Y-122.0
X130.05Y-82.278
X130.611Y-83.779
X130.8Y-142.6
X133.138Y-118.011
X133.138Y-119.011
X133.138Y-121.1
X133.138Y-122.1
X133.2Y-120.1
X133.4Y-142.3
X136.2Y-141.9
X138.108Y-141.522
X139.509Y-140.842
X140.295Y-134.416
X141.295Y-134.416
X141.732Y-41.656
X142.295Y-134.416
X146.85Y-105.678
X147.125Y-117.228
X149.162Y-123.578
X151.25Y-94.878
X151.773Y-139.229
X151.8Y-76.378
X151.8Y-79.628
X153.35Y-98.078
X153.95Y-94.878
X154.364Y-138.779
X157.057Y-138.329
X157.55Y-69.472
X159.647Y-137.879
X160.05Y-79.875
X160.973Y-81.4
X161.647Y-69.472
X161.75Y-66.728
X161.923Y-80.45
X163.308Y-69.935
X164.626Y-137.429
X165.286Y-70.078
X165.45Y-62.178
X169.503Y-137.029
X169.8Y-71.372
X171.75Y-67.528
X172.246Y-136.616
X172.35Y-71.772
X173.768Y-91.195
X174.181Y-102.85
X174.35Y-101.278
X174.7Y-72.172
X174.786Y-136.216
X177.2Y-72.572
X177.427Y-135.81
X179.55Y-84.378
X179.9Y-72.972
X180.15Y-57.978
X180.55Y-83.678
X181.15Y-67.528
X181.882Y-56.746
X182.3Y-73.372
X183.2Y-66.928
X184.3Y-72.628
X184.3Y-79.425
X186.55Y-57.978
X188.768Y-79.903
X188.95Y-84.403
X189.125Y-119.553
X190.25Y-83.578
X191.05Y-117.753
X191.85Y-149.078
X192.05Y-135.078
X200.156Y-81.378
X200.45Y-67.528
X203.05Y-67.528
X209.804Y-37.084
X212.35Y-81.478
X214.577Y-144.751
X215.392Y-45.212
X216.916Y-37.592
X221.488Y-46.228
X222.504Y-41.148
X223.012Y-36.068
X228.6Y-46.228
T3
X116.35Y-42.8
X116.35Y-45.3
X118.45Y-42.8
X121.05Y-42.8
X123.15Y-42.8
X123.15Y-45.3
T4
X77.397Y-65.158
X77.397Y-67.698
X77.397Y-70.238
X77.397Y-72.778
X77.397Y-75.318
X77.397Y-77.858
X77.397Y-80.398
X77.397Y-82.938
X77.397Y-85.478
X77.397Y-88.018
X77.397Y-90.558
X77.397Y-93.098
X77.397Y-95.638
X77.397Y-98.178
X77.397Y-105.918
X77.397Y-108.458
X77.397Y-110.998
X77.397Y-113.538
X77.397Y-116.078
X77.397Y-118.618
X77.397Y-121.158
X77.397Y-123.698
X77.397Y-126.238
X77.397Y-128.778
X77.397Y-131.318
X77.397Y-133.858
X77.397Y-136.398
X77.397Y-138.938
X77.45Y-142.228
X77.45Y-144.728
X79.0Y-61.478
X81.5Y-61.478
X82.6Y-143.478
X84.005Y-149.678
X84.2Y-101.178
X86.005Y-149.678
X86.7Y-101.178
X87.5Y-143.478
X92.611Y-101.277
X92.637Y-65.158
X92.637Y-67.698
X92.637Y-70.238
X92.637Y-72.778
X92.637Y-75.318
X92.637Y-77.858
X92.637Y-80.398
X92.637Y-82.938
X92.637Y-85.478
X92.637Y-88.018
X92.637Y-90.558
X92.637Y-93.098
X92.637Y-95.638
X92.637Y-98.178
X92.637Y-105.918
X92.637Y-108.458
X92.637Y-110.998
X92.637Y-113.538
X92.637Y-116.078
X92.637Y-118.618
X92.637Y-121.158
X92.637Y-123.698
X92.637Y-126.238
X92.637Y-128.778
X92.637Y-131.318
X92.637Y-133.858
X92.637Y-136.398
X92.637Y-138.938
X92.65Y-142.428
X92.65Y-144.928
X95.111Y-101.277
X95.65Y-139.028
X95.65Y-141.528
X96.25Y-54.078
X97.15Y-60.978
X97.15Y-68.598
X97.95Y-57.578
X98.75Y-54.078
X99.69Y-60.978
X99.69Y-68.598
X100.95Y-54.078
X101.75Y-57.578
X102.23Y-60.978
X102.23Y-68.598
X103.35Y-48.7
X103.45Y-54.078
X104.77Y-60.978
X104.77Y-68.598
X105.037Y-128.018
X105.037Y-130.518
X105.073Y-133.235
X105.073Y-148.475
X105.85Y-48.7
X107.31Y-60.978
X107.31Y-68.598
X107.613Y-133.235
X107.613Y-148.475
X109.85Y-60.978
X109.85Y-68.598
X110.153Y-133.235
X110.153Y-148.475
X110.235Y-49.278
X110.235Y-56.898
X110.333Y-92.155
X110.333Y-107.395
X111.15Y-71.378
X111.15Y-73.878
X112.39Y-60.978
X112.39Y-68.598
X112.693Y-133.235
X112.693Y-148.475
X112.775Y-49.278
X112.775Y-56.898
X112.873Y-92.155
X112.873Y-107.395
X114.93Y-60.978
X114.93Y-68.598
X115.233Y-133.235
X115.233Y-148.475
X115.315Y-49.278
X115.315Y-56.898
X115.413Y-92.155
X115.413Y-107.395
X117.47Y-60.978
X117.47Y-68.598
X117.773Y-133.235
X117.773Y-148.475
X117.855Y-49.278
X117.855Y-56.898
X117.953Y-92.155
X117.953Y-107.395
X120.01Y-60.978
X120.01Y-68.598
X120.313Y-133.235
X120.313Y-148.475
X120.395Y-49.278
X120.395Y-56.898
X120.493Y-92.155
X120.493Y-107.395
X122.55Y-60.978
X122.55Y-68.598
X122.853Y-133.235
X122.853Y-148.475
X122.935Y-49.278
X122.935Y-56.898
X123.033Y-92.155
X123.033Y-107.395
X125.09Y-60.978
X125.09Y-68.598
X125.393Y-133.235
X125.393Y-148.475
X125.475Y-49.278
X125.475Y-56.898
X125.573Y-92.155
X125.573Y-107.395
X127.63Y-60.978
X127.63Y-68.598
X127.933Y-133.235
X127.933Y-148.475
X128.113Y-92.155
X128.113Y-107.395
X128.45Y-51.428
X128.45Y-53.928
X130.17Y-60.978
X130.17Y-68.598
X130.473Y-133.235
X130.473Y-148.475
X130.653Y-92.155
X130.653Y-107.395
X133.013Y-133.235
X133.013Y-148.475
X133.193Y-92.155
X133.193Y-107.395
X134.95Y-52.378
X134.95Y-62.538
X135.553Y-133.235
X135.553Y-148.475
X135.733Y-92.155
X135.733Y-107.395
X137.95Y-52.398
X137.95Y-62.558
X138.093Y-133.235
X138.093Y-148.475
X138.273Y-92.155
X138.273Y-107.395
X140.813Y-92.155
X140.813Y-107.395
X140.95Y-52.398
X140.95Y-62.558
X141.05Y-149.528
X141.05Y-152.028
X143.353Y-92.155
X143.353Y-107.395
X144.8Y-110.628
X145.893Y-92.155
X145.893Y-107.395
X146.0Y-65.45
X146.0Y-67.95
X147.237Y-133.235
X147.237Y-148.475
X147.252Y-127.865
X147.252Y-130.365
X147.3Y-110.628
X148.433Y-92.155
X148.433Y-107.395
X149.777Y-133.235
X149.777Y-148.475
X150.35Y-112.018
X150.35Y-122.178
X150.973Y-92.155
X150.973Y-107.395
X152.317Y-133.235
X152.317Y-148.475
X153.513Y-92.155
X153.513Y-107.395
X154.857Y-133.235
X154.857Y-148.475
X156.053Y-92.155
X156.053Y-107.395
X157.397Y-133.235
X157.397Y-148.475
X157.666Y-60.332
X157.666Y-75.572
X158.593Y-92.155
X158.593Y-107.395
X159.937Y-133.235
X159.937Y-148.475
X160.206Y-60.332
X160.206Y-75.572
X160.8Y-57.378
X162.365Y-91.828
X162.365Y-101.988
X162.477Y-133.235
X162.477Y-148.475
X162.746Y-60.332
X162.746Y-75.572
X163.3Y-57.378
X165.017Y-133.235
X165.017Y-148.475
X165.286Y-60.332
X165.286Y-75.572
X166.175Y-45.473
X166.175Y-55.633
X167.0Y-90.478
X167.557Y-133.235
X167.557Y-148.475
X167.65Y-111.978
X167.65Y-114.478
X167.65Y-117.028
X167.65Y-119.528
X167.826Y-60.332
X167.826Y-75.572
X169.249Y-45.498
X169.249Y-55.658
X169.5Y-90.478
X170.097Y-133.235
X170.097Y-148.475
X170.366Y-60.332
X170.366Y-75.572
X172.05Y-95.828
X172.05Y-98.328
X172.297Y-45.498
X172.297Y-55.658
X172.637Y-133.235
X172.637Y-148.475
X172.906Y-60.332
X172.906Y-75.572
X175.177Y-133.235
X175.177Y-148.475
X175.353Y-45.498
X175.353Y-55.658
X175.446Y-60.332
X175.446Y-75.572
X176.97Y-96.146
X176.97Y-98.686
X176.97Y-101.226
X176.97Y-103.766
X176.97Y-106.306
X176.97Y-108.846
X176.97Y-111.386
X176.97Y-113.926
X176.97Y-116.466
X176.97Y-119.006
X176.97Y-121.546
X177.717Y-133.235
X177.717Y-148.475
X177.986Y-60.332
X177.986Y-75.572
X178.393Y-45.498
X178.393Y-55.658
X179.51Y-93.606
X179.51Y-96.146
X179.51Y-98.686
X179.51Y-101.226
X179.51Y-103.766
X179.51Y-106.306
X179.51Y-108.846
X179.51Y-111.386
X179.51Y-113.926
X179.51Y-116.466
X179.51Y-119.006
X179.51Y-121.546
X179.51Y-124.086
X179.85Y-37.078
X179.85Y-39.578
X180.257Y-133.235
X180.257Y-148.475
X180.526Y-60.332
X180.526Y-75.572
X182.05Y-93.606
X182.05Y-96.146
X182.05Y-121.546
X182.05Y-124.086
X183.066Y-60.332
X183.066Y-75.572
X183.2Y-88.678
X184.59Y-93.606
X184.59Y-96.146
X184.59Y-121.546
X184.59Y-124.086
X185.606Y-60.332
X185.606Y-75.572
X185.7Y-88.678
X187.13Y-93.606
X187.13Y-96.146
X187.13Y-121.546
X187.13Y-124.086
X188.146Y-60.332
X188.146Y-75.572
X189.67Y-93.606
X189.67Y-96.146
X189.67Y-121.546
X189.67Y-124.086
X190.686Y-60.332
X190.686Y-75.572
X192.21Y-93.606
X192.21Y-96.146
X192.21Y-121.546
X192.21Y-124.086
X192.298Y-129.54
X193.226Y-60.332
X193.226Y-75.572
X194.75Y-93.606
X194.75Y-96.146
X194.75Y-121.546
X194.75Y-124.086
X194.798Y-129.54
X195.766Y-60.332
X195.766Y-75.572
X197.29Y-93.606
X197.29Y-96.146
X197.29Y-121.546
X197.29Y-124.086
X198.306Y-60.332
X198.306Y-75.572
X198.628Y-146.07
X198.628Y-148.57
X199.83Y-93.606
X199.83Y-96.146
X199.83Y-121.546
X199.83Y-124.086
X200.846Y-60.332
X200.846Y-75.572
X202.37Y-93.606
X202.37Y-96.146
X202.37Y-121.546
X202.37Y-124.086
X203.386Y-60.332
X203.386Y-75.572
X204.91Y-93.606
X204.91Y-96.146
X204.91Y-98.686
X204.91Y-101.226
X204.91Y-103.766
X204.91Y-106.306
X204.91Y-108.846
X204.91Y-111.386
X204.91Y-113.926
X204.91Y-116.466
X204.91Y-119.006
X204.91Y-121.546
X204.91Y-124.086
X205.926Y-60.332
X205.926Y-75.572
X207.45Y-96.146
X207.45Y-98.686
X207.45Y-101.226
X207.45Y-103.766
X207.45Y-106.306
X207.45Y-108.846
X207.45Y-111.386
X207.45Y-113.926
X207.45Y-116.466
X207.45Y-119.006
X207.45Y-121.546
X209.65Y-65.878
X211.65Y-65.878
X212.05Y-91.228
X212.05Y-93.728
X214.85Y-103.828
X214.85Y-106.328
X215.05Y-112.828
X215.05Y-115.328
X216.65Y-61.198
X216.65Y-71.358
X217.005Y-87.878
X217.1Y-150.378
X217.8Y-115.478
X218.4Y-79.078
X219.005Y-87.878
X219.6Y-150.378
X220.3Y-115.478
X220.9Y-79.078
X225.0Y-86.278
X227.5Y-86.278
T5
X170.595Y-40.078
X172.754Y-40.078
X174.913Y-40.078
X177.072Y-40.078
X222.085Y-65.578
X224.625Y-65.578
T6
X92.275Y-44.878
X94.815Y-44.878
X97.355Y-44.878
X97.85Y-152.478
X99.895Y-44.878
X102.435Y-44.878
X104.975Y-44.878
X108.65Y-128.678
X110.422Y-88.729
X111.866Y-110.89
X112.962Y-88.729
X114.406Y-110.89
X115.502Y-88.729
X116.946Y-110.89
X118.042Y-88.729
X119.486Y-110.89
X120.582Y-88.729
X123.068Y-110.896
X123.122Y-88.729
X125.608Y-110.896
X125.662Y-88.729
X128.148Y-110.896
X128.202Y-88.729
X130.688Y-110.896
X130.742Y-88.729
X131.25Y-152.478
X133.228Y-110.896
X133.282Y-88.729
X135.768Y-110.896
X135.822Y-88.729
X138.308Y-110.896
X138.362Y-88.729
X140.848Y-110.896
X142.62Y-46.148
X143.65Y-128.678
X143.65Y-132.478
X143.65Y-150.278
X143.765Y-44.168
X143.765Y-48.128
X144.91Y-46.148
X146.055Y-44.168
X146.055Y-48.128
X147.2Y-46.148
X148.345Y-44.168
X148.345Y-48.128
X149.49Y-46.148
X149.75Y-53.378
X149.75Y-60.978
X150.635Y-44.168
X150.635Y-48.128
X151.45Y-152.478
X151.78Y-46.148
X152.925Y-44.168
X152.925Y-48.128
X173.65Y-85.678
X183.066Y-44.824
X183.066Y-47.364
X185.606Y-44.824
X185.606Y-47.364
X187.8Y-137.088
X187.8Y-139.628
X187.8Y-142.168
X187.8Y-144.708
X187.8Y-147.248
X188.146Y-44.824
X188.146Y-47.364
X189.65Y-152.478
X190.34Y-137.088
X190.34Y-139.628
X190.34Y-142.168
X190.34Y-144.708
X190.34Y-147.248
X190.686Y-44.824
X190.686Y-47.364
X193.226Y-44.824
X193.226Y-47.364
X195.766Y-44.824
X195.766Y-47.364
X198.306Y-44.824
X198.306Y-47.364
X198.65Y-134.278
X198.65Y-141.898
X200.846Y-44.824
X200.846Y-47.364
X203.386Y-44.824
X203.386Y-47.364
X204.43Y-79.478
X206.27Y-134.278
X206.27Y-141.898
X206.97Y-79.478
X209.51Y-79.478
X211.95Y-85.678
X212.05Y-79.478
X216.825Y-118.738
X216.825Y-121.278
X216.825Y-123.818
X216.825Y-126.358
X216.825Y-128.898
X216.825Y-131.438
X216.825Y-133.978
X216.825Y-136.518
X216.825Y-139.058
X216.825Y-141.598
X216.825Y-144.138
X216.825Y-146.678
X217.025Y-93.723
X217.025Y-96.263
X217.025Y-98.803
X219.365Y-118.738
X219.365Y-121.278
X219.365Y-123.818
X219.365Y-126.358
X219.365Y-128.898
X219.365Y-131.438
X219.365Y-133.978
X219.365Y-136.518
X219.365Y-139.058
X219.365Y-141.598
X219.365Y-144.138
X219.365Y-146.678
X219.565Y-93.723
X219.565Y-96.263
X219.565Y-98.803
X225.139Y-44.938
X225.139Y-47.478
X225.139Y-50.018
T7
X96.45Y-83.678
X96.45Y-93.838
X97.8Y-101.048
X97.8Y-111.208
X154.05Y-75.92
X154.05Y-86.08
X154.197Y-111.54
X154.197Y-118.04
X158.697Y-111.54
X158.697Y-118.04
X165.7Y-80.728
X165.7Y-87.228
X170.2Y-80.728
X170.2Y-87.228
X183.97Y-55.778
X194.05Y-139.798
X194.05Y-149.958
X194.13Y-55.778
X197.97Y-83.178
X206.57Y-51.878
X208.13Y-83.178
X216.73Y-51.878
X218.05Y-102.398
X218.05Y-112.558
T8
X113.0Y-39.8
X119.75Y-39.0
X126.5Y-39.8
T9
X135.58Y-46.078
X160.58Y-46.078
T6
X209.718Y-46.664G85X209.718Y-44.464
G05
X215.618Y-42.164G85X213.418Y-42.164
G05
X215.818Y-48.464G85X213.218Y-48.464
G05
M30
